<svg width="120" height="60" viewBox="0 0 120 60" fill="none" xmlns="http://www.w3.org/2000/svg">
<path d="M90.2848 21.018L85.6767 24.3749L86.6604 19.6236L91.2685 16.2667H95.1518L89.6117 43.7932H85.7284L90.2848 21.018Z" fill="black"/>
<path d="M95.0725 55.189C95.2386 55.8899 94.6675 55.0384 94.2884 55.2253C94.195 55.5421 94.0236 55.5369 93.7692 55.6407C93.5719 55.6719 93.1358 55.542 92.9125 55.3811C92.6892 55.1994 92.8917 56.0717 92.5698 55.7913C92.4919 55.6822 92.4296 55.6303 92.2998 55.7653C91.1627 55.0228 91.6352 56.4403 90.2697 55.8744C89.4493 55.459 88.956 56.2534 88.4836 55.6459C87.549 55.8017 87.1336 55.6615 86.7182 55.3136C87.0609 56.0042 84.5479 55.2565 84.5011 54.8359C83.4575 55.3655 83.6496 54.1038 83.1148 54.8878C82.8864 54.945 83.1148 54.3946 82.8708 54.6542C82.4814 54.6957 82.3568 54.0727 82.0868 54.353C81.5416 54.3271 81.3599 53.6209 80.7991 53.6054C80.4305 53.569 79.0026 53.1381 79.2259 52.9096C79.0026 52.5617 78.7378 53.0342 78.7638 52.2139C78.5561 53.1017 77.8863 52.2139 77.7565 51.7362C77.3619 51.4869 76.4377 51.2066 76.178 50.49C75.7107 51.5337 75.0254 49.0414 74.3556 49.4983C74.2102 49.2491 73.3691 48.8908 73.5716 48.6883C73.665 48.2989 73.1354 48.6883 73.2081 48.247C72.8706 48.3716 72.6941 48.2885 72.6577 47.7226C72.0762 47.598 71.936 47.1151 71.6712 46.7205C71.8062 47.3747 70.9858 46.5907 70.9858 46.2844C71.3389 45.6353 70.4355 46.0611 70.4095 45.7028C70.207 44.8461 69.3763 44.4515 68.7792 43.7973C68.4365 43.7454 69.1011 43.356 68.6026 43.3611C68.0938 43.0808 68.3326 42.9665 68.5144 42.7277C68.4469 42.3175 67.6784 42.8575 68.1405 42.1566C68.5974 41.8554 66.8529 41.845 67.9848 41.6477C67.4136 41.3933 67.3098 40.5522 66.7646 40.1835C67.0034 39.9758 66.749 39.9603 66.6504 39.8824C66.4323 39.6539 66.6919 39.1607 66.2869 38.8855C66.2558 38.5168 66.209 37.7432 65.8092 37.4265C65.5496 36.8917 66.479 36.819 65.56 36.5698C66.1208 35.7494 64.911 36.4348 65.5496 35.8377C65.8508 35.7909 64.8071 35.36 65.3679 35.1834C65.4302 34.6434 65.3679 34.2073 65.3315 33.6258C64.776 33.3142 65.7002 32.7587 65.1654 32.577C65.1654 32.3277 65.0408 32.0422 65.0823 31.8033C64.5527 31.5749 65.0564 31.6164 64.9162 31.3672C64.3502 31.1283 64.9837 30.9622 65.2225 30.8064C64.2671 30.6714 65.3575 30.1626 65.0875 29.7057C65.2225 29.2955 64.6254 28.958 64.9837 28.8282C65.2485 28.7763 64.7085 28.174 65.2796 28.0649C65.0979 27.7222 64.9214 26.8292 65.3575 26.5644C65.6638 26.5332 65.6898 26.0244 65.4042 26.2321C64.8954 26.0711 65.6535 25.77 65.8508 25.6869C65.6119 25.0223 65.4198 24.8562 66.1104 24.3317C66.7698 23.7917 65.6223 24.1033 66.0792 23.6516C66.4634 23.4491 65.9961 22.2652 66.7594 22.5197C67.2475 22.2704 66.2246 21.6941 66.9152 21.8083C67.1644 21.9381 66.8217 21.4656 67.1384 21.4085C67.1696 21.5539 67.6576 21.3566 67.4136 21.2528C67.0761 20.9776 66.8944 20.9205 67.3721 20.7595C67.4603 20.422 67.5175 20.0949 68.0263 19.9339C67.5798 19.3472 68.4261 19.0045 68.5819 18.423C68.7532 17.9765 68.7947 17.7636 69.3243 17.6805C68.7844 17.4625 69.4282 16.8082 69.6099 16.6784C69.4178 16.4084 69.8436 16.1073 70.0253 16.1125C70.4666 15.884 70.3628 14.7937 70.9339 14.6067C71.178 14.6067 70.908 14.4873 70.9651 14.425C71.0845 14.072 71.8114 14.3316 71.5985 13.9993C71.557 13.9266 71.5155 13.75 71.7439 13.7397C71.9412 13.641 71.5103 13.3554 71.7647 13.2049C72.5175 13.2049 71.962 12.6856 72.611 12.5714C72.8654 12.5351 72.4293 12.0158 72.9485 12.1456C73.5975 12.4156 73.1146 11.6472 73.312 11.6005C74.0077 11.6212 74.2102 9.7157 74.9319 10.318C75.0669 10.4478 75.4096 9.643 75.4563 9.54955C75.8925 9.46647 75.7627 9.40416 75.9132 9.12898C76.1884 9.28994 76.3753 8.55784 76.718 8.59937C77.0348 8.86937 76.9621 8.28265 77.3359 8.41765C77.4917 7.9815 78.0576 8.06977 78.2965 7.72189C78.4055 7.25459 78.6911 7.83612 78.8157 7.62324C78.7326 7.1196 79.7347 7.09883 79.8541 7.06767C80.3578 6.58999 81.2145 6.3823 81.5104 6.29923C81.7804 6.34077 82.3412 5.66059 82.4035 6.07077C83.1356 5.84231 83.8002 5.72289 84.6673 5.70213C84.7919 6.3875 84.9165 5.53078 85.0723 5.92539C85.119 6.13308 86.2717 6.77172 86.0432 6.24731C86.5624 6.09673 87.8034 5.77482 88.2084 6.06558C88.5199 6.07596 88.6445 5.63463 89.008 6.19538C89.2468 5.60867 89.6414 5.97212 90.1918 5.68655C90.3008 5.88385 90.5501 5.70213 90.6643 5.83712C90.6851 6.15385 90.7941 5.89943 90.8564 5.86308C91.1316 5.54117 91.9727 5.47886 92.2739 6.10192C92.5646 5.88904 92.6529 5.60867 92.9437 5.99289C93.2292 5.71251 93.681 5.79039 93.925 5.75924C94.4079 6.03443 94.9686 6.04481 95.5346 6.32C95.8149 5.48405 96.0901 6.29923 96.2355 6.40307C96.4951 5.77482 96.7288 6.80287 97.0922 6.30961C97.5803 5.92539 97.5803 6.89633 97.9489 6.22654C98.1618 6.29923 98.0216 6.80287 98.2553 6.54845C98.5928 6.1175 99.2781 6.6523 99.7766 6.54326C99.8545 7.33248 100.68 6.97421 100.997 6.90672C101.184 7.04691 100.908 7.46228 101.313 7.03652C101.646 7.59209 102.165 7.18709 102.523 7.82054C102.804 8.09573 103.017 7.37401 103.141 8.18919C103.416 8.49553 103.432 7.66478 103.743 8.02823C103.889 8.25669 104.148 8.44361 104.408 8.5838C104.714 8.57341 104.47 9.14455 104.912 9.01994C105.213 9.25878 106.028 8.92129 105.971 9.38859C105.898 9.68454 106.532 9.43532 106.215 9.79877C106.277 10.1363 106.62 9.50801 106.854 10.1778C107.69 10.6347 108.645 11.2162 109.081 12.0885C109.304 12.1872 109.543 12.3845 109.813 12.6701C110.234 12.7272 109.543 13.1374 110.031 13.0802C110.504 12.8518 111.236 14.1602 111.106 14.3835C110.774 14.8092 111.963 14.4354 111.651 14.8819C111.36 15.9619 111.947 15.1831 112.295 15.4063C112.897 15.8217 111.874 16.2683 112.632 16.1384C113.053 16.1592 112.825 16.7355 112.991 16.7771C113.204 16.6888 113.287 17.125 113.032 17.1094C112.918 17.3534 113.261 17.125 113.406 17.4209C113.832 17.5715 113.121 18.2049 113.764 18.288C114.278 19.0565 114.201 19.9339 114.782 20.4739C114.668 20.6712 114.699 20.7076 114.886 20.8218C114.886 20.9776 114.606 21.232 114.927 21.3151C114.974 21.7616 115.587 22.3535 114.792 21.9641C114.642 22.3691 114.772 22.3795 115.12 22.4937C115.587 22.7741 114.938 23.2725 115.525 23.6723C115.244 24.0098 115.036 24.4771 115.613 24.5602C115.992 24.7263 115.332 25.0223 115.706 25.1002C115.805 25.121 115.758 25.2923 115.691 25.4169C115.296 26.2373 116.07 27.2238 115.597 27.9715C115.099 28.4232 116.35 29.0359 115.535 29.1605C115.332 29.337 115.971 29.9809 115.436 30.0847C115.981 30.3443 115.67 31.2426 115.306 31.6372C115.062 31.7929 115.68 31.7306 115.343 31.9643C114.881 32.2343 116.023 32.2498 115.53 32.6081C115.104 32.8262 115.981 33.5842 115.213 33.6517C115.322 34.119 115.13 34.4877 115.312 35.0069C115.478 35.3392 114.792 35.3236 115.005 35.7182C115.509 36.4711 114.465 36.6476 114.876 37.1149C115.197 37.5043 114.481 37.9509 114.761 38.4857C114.792 38.9841 114.169 38.8232 114.31 39.2593C114.107 39.711 114.881 39.4774 114.034 39.872C114.149 40.8274 113.764 41.4245 113.24 42.2604C112.965 42.2708 112.882 42.3694 113.219 42.5304C113.235 42.7692 113.172 43.2833 112.783 43.0548C112.435 43.0912 113.172 43.8856 112.586 43.9063C112.087 43.9686 112.934 44.8254 112.129 44.4515C111.916 44.4619 112.015 44.9344 112.082 45.1109C111.791 45.5419 111.127 45.3394 110.924 45.8171C111.495 45.7288 111.49 46.3519 110.955 46.383C110.717 46.5751 110.768 47.2605 110.4 47.1151C110.249 47.1515 110.125 47.8524 109.6 47.7849C108.795 47.6291 109.496 48.2159 109.206 48.4235C108.676 48.4235 108.614 49.4568 108.043 49.1972C107.996 49.1141 107.487 49.3789 107.788 49.3997C107.991 49.9189 107.357 50.0227 106.963 49.732C107.165 50.1058 107.092 50.1214 106.713 50.22C107.16 50.3187 106.402 50.9158 106.23 50.7081C105.405 51.2689 104.803 51.9542 103.785 52.2087C103.302 52.1671 103.084 53.1848 102.544 52.624C101.677 52.3073 103.432 53.7352 101.532 52.8213C101.443 53.4496 99.8545 54.2128 99.2003 53.9377C99.2522 54.8826 97.5543 54.2855 96.8845 55.0021C96.5782 55.3655 96.4899 54.5711 96.3497 54.9086C95.9396 54.9813 95.8253 55.3188 95.5138 55.4278C95.1919 55.7134 95.2542 54.218 95.0673 55.1942L95.0725 55.189ZM94.1015 6.85479C93.4213 6.41865 92.7775 6.95345 92.2012 6.72499C91.9364 6.70422 91.8118 7.35844 91.6145 6.50692C91.1472 5.96174 91.4379 7.09883 90.8979 6.82883C90.5033 6.22654 90.5189 7.40517 90.2281 6.96902C89.7556 6.76653 89.4857 7.31171 88.7172 6.94825C88.6082 7.24421 87.9643 7.1819 87.6476 7.08844C87.3776 7.03652 86.9259 7.48824 86.8896 7.12998C86.874 6.79249 86.5261 7.25979 86.5105 7.28055C86.1055 7.33767 85.903 7.48824 85.5811 7.61285C85.0619 7.22863 85.1554 7.72189 84.7711 7.62324C84.6154 7.65958 84.5946 7.95035 84.4077 7.7842C84.2415 7.76343 84.0494 7.96073 84.0858 7.65958C83.7171 6.97421 83.8521 8.55784 83.4315 7.83093C83.0162 7.45709 83.5406 8.53707 83.0629 8.35534C82.7773 8.07496 82.7202 8.64091 82.4554 8.42284C82.3464 8.31899 81.8739 8.13208 81.9933 8.38649C82.092 8.63572 82.0868 8.89533 81.8064 8.80187C81.3339 8.62014 81.1885 9.41455 80.8303 9.16013C80.5966 9.60147 80.2383 9.55474 80.0307 10.0376C79.5841 10.2193 79.4284 10.344 79.1168 10.5413C78.7118 10.5413 79.6101 11.2526 78.7949 10.967C78.3328 11.481 77.419 12.722 76.6557 13.3243C76.3546 12.8726 76.9621 11.6212 77.3048 11.6368C77.6267 11.2889 77.2217 10.8839 77.554 10.6451C77.8188 10.7022 77.8967 11.2059 77.8551 10.6139C78.4211 10.3647 78.6859 9.16013 79.2518 9.60666C79.2414 8.95763 79.4543 8.81745 79.9943 8.80706C80.1916 8.13727 81.2041 8.06977 81.391 7.62843C81.9206 8.02304 82.066 7.25979 82.7098 7.01575C82.8812 7.02614 83.4523 7.32209 83.4419 7.01575C83.5562 6.36153 84.2935 6.94825 84.4596 6.65749C84.74 6.29923 84.7815 7.26498 85.0515 6.76133C84.5479 5.47886 81.5208 7.03133 80.1397 7.5142C79.4076 7.70112 79.6412 8.35015 78.7845 7.95035C79.0545 8.52668 78.2653 8.79668 77.9486 8.50591C77.9797 8.81745 77.6111 8.95244 77.5021 9.23282C77.2373 9.38339 77.149 8.86937 76.9932 9.23282C76.7077 10.6763 76.0586 9.26397 75.9029 10.2038C75.8977 10.5309 75.6796 10.2401 75.4771 10.3803C75.6848 10.5932 75.4408 10.5776 75.3473 10.6399C75.1396 10.9411 74.719 11.9483 74.4906 11.4447C74.3452 11.8289 74.1531 12.2651 73.6546 12.4156C73.7793 12.722 73.2185 12.9193 73.0731 13.1633C73.0368 13.7397 72.5954 13.5372 72.4552 14.0771C72.6162 14.721 71.6349 14.56 71.7803 14.8871C71.7335 15.3077 71.2922 15.7231 70.9703 15.8113C70.638 15.8113 71.3233 16.0606 70.9495 16.2267C70.6639 16.3825 71.1157 16.6369 70.7262 16.7563C70.6743 17.1457 70.4095 16.3306 70.3939 16.8394C70.2174 17.2184 70.1499 18.1634 69.7449 18.1167C69.0024 18.0388 69.8903 19.2797 69.0699 19.2538C68.8103 19.3576 68.2028 19.8509 68.8103 19.6016C69.6722 19.5341 68.5922 20.0741 68.639 20.4168C68.3067 20.5778 68.1717 21.5539 68.0315 21.8343C68.0315 22.3224 67.6732 22.3483 67.2838 22.5197C68.0834 22.8364 67.019 22.9143 67.1488 23.1687C67.6525 24.4667 66.3959 24.5498 66.4946 25.5C66.7698 25.6142 65.9131 26.3204 66.2194 26.4709C66.7127 26.9434 65.7988 27.499 65.9858 28.174C66.4167 28.5218 65.9961 29.093 65.7313 29.5759C65.4925 29.7628 66.1883 29.8666 65.8456 30.0951C65.83 30.2768 66.0844 30.6091 65.8508 30.9258C65.4665 31.4243 66.4479 31.7047 66.0844 32.1823C65.6586 32.5718 66.6607 33.9425 65.8715 33.6725C65.9183 34.2073 66.5621 33.8698 66.1052 34.4929C66.3856 35.0069 66.6036 35.5417 66.2194 35.9727C66.8269 35.848 66.6556 36.1232 66.8321 36.6892C67.0086 36.8969 66.5517 36.9021 66.5309 37.0838C66.5309 37.1876 66.7334 37.468 66.7334 37.2084C66.9463 36.819 67.2475 37.6134 67.0865 37.6861C66.7127 37.9613 67.2475 38.252 67.1696 38.6155C67.0398 39.0828 67.6265 38.548 67.5798 39.0101C67.3098 39.4358 68.0574 39.8408 67.9121 40.2458C67.8653 40.412 68.2807 40.1524 68.3378 40.3237C68.5974 40.7235 68.2911 41.1337 68.3794 41.5231C68.5767 41.4297 68.7792 41.2272 68.774 41.5646C68.7013 41.8035 69.1322 41.7568 69.0803 42.0112C68.8726 42.411 69.9266 42.4681 69.5424 42.9925C69.3711 43.2313 69.7916 43.3144 69.6878 43.5792C70.1187 43.4235 70.3161 43.4754 70.3991 44.005C70.3887 44.9655 71.287 44.7942 71.5778 45.4173C71.6037 45.6301 71.6868 46.1753 71.9516 45.8482C72.3566 45.6198 72.1852 46.1234 71.9101 46.2324C72.4449 46.0715 72.3618 46.7361 72.6837 46.5336C73.2133 46.357 72.7875 46.8607 72.9433 47.0113C73.1354 46.7932 73.7118 47.2501 73.312 47.2916C73.4677 47.437 73.8571 47.4318 73.8312 47.6914C73.961 48.4132 74.9942 47.9303 74.8592 48.6416C75.2486 48.3041 75.2798 49.2595 75.9859 49.5451C76.4273 49.3789 76.3494 49.841 76.7025 49.9241C77.3048 49.9916 77.1749 50.1162 77.2632 50.4641C77.824 50.7341 80.4824 52.38 79.5841 52.2294C80.4097 52.811 81.4585 52.5825 82.0297 53.325C82.7254 54.1557 82.1335 53.4392 82.8033 53.595C83.6029 53.73 83.3537 53.4704 83.8417 53.9948C84.4648 53.5379 84.6258 54.5348 85.1969 54.2492C85.55 54.0259 85.3838 54.7425 85.5811 54.5867C85.8096 54.1713 86.0276 54.8723 86.3703 54.5659C86.8947 54.6594 87.7774 54.3686 87.7411 55.3292C87.9384 55.6355 87.819 54.3427 88.2239 54.6853C88.3538 54.758 88.3486 54.784 88.4005 54.623C88.7276 54.2752 88.6341 55.0696 88.9197 54.7788C89.3818 55.1578 89.8958 54.4309 90.1606 54.9813C90.602 55.1423 90.872 54.6853 91.7183 54.7736C92.0818 55.0799 91.8377 54.1661 92.305 54.54C92.4556 54.1454 93.9146 55.2772 93.6861 54.7321C93.5615 54.1402 94.2573 54.9138 94.4286 54.3167C94.4598 54.1038 94.7765 54.0207 94.8492 54.27C94.9219 54.758 95.1815 54.0311 95.3684 54.3686C95.5657 54.623 95.4515 54.0727 95.6488 54.1038C95.7474 53.9273 95.8565 54.1765 95.9344 54.0623C96.0642 53.6521 96.303 54.3011 96.3549 54.0207C96.6249 53.4807 97.8295 53.8338 98.2501 53.1536C98.4578 53.1069 98.7693 53.3406 98.9407 53.2886C99.0601 53.0861 99.3924 52.8058 99.6935 52.9927C99.9427 53.1848 99.6935 52.38 100.073 52.7279C100.394 53.0498 100.239 52.1983 100.524 52.4267C100.862 52.5046 100.971 52.3073 101.262 52.6033C101.272 52.515 101.095 52.2813 101.282 52.2969C101.646 52.3696 101.568 51.6583 101.968 51.9646C102.617 51.7569 102.861 51.8089 103.157 51.326C103.619 51.5648 103.603 50.5212 104.169 50.6873C104.662 51.0145 104.694 50.1214 105.192 50.3602C105.384 49.6956 106.085 49.6229 106.745 49.4724C106.848 48.6364 107.856 48.382 108.307 47.7486C108.718 47.302 108.962 47.6759 109.232 46.8815C109.559 46.1182 109.958 46.923 109.709 45.9936C110.093 45.7755 110.675 45.4796 110.597 45.0642C110.462 44.6073 111.106 45.1265 111.153 44.68C110.987 43.6623 112.347 42.7329 112.466 41.7204C112.96 40.9675 113.141 40.1472 113.084 39.5033C113.51 39.3008 113.297 40.0641 113.64 39.4774C113.884 39.2282 113.474 39.3216 113.51 39.0776C113.816 38.7972 113.058 39.0516 113.307 38.7401C113.318 38.1949 113.889 37.8107 113.847 37.5044C113.79 37.0526 113.52 36.4607 114.237 36.5801C113.712 36.3153 113.977 35.8013 114.029 35.199C114.668 35.1886 113.951 34.2385 114.486 34.0671C114.907 33.4181 113.967 33.7504 114.195 33.3091C114.585 33.1948 114.922 33.0702 114.351 32.7327C114.855 32.3018 114.683 32.6704 114.46 32.2706C114.715 31.9279 114.985 31.3983 114.398 31.1647C114.226 30.8739 114.891 30.8531 114.512 30.5312C114.361 30.4014 114.574 30.2872 114.559 30.173C114.133 29.7472 115.099 29.8459 114.798 29.4149C115 29.0203 114.72 28.4388 114.855 28.0182C115.036 27.6392 114.014 27.634 114.59 27.2809C115.161 27.1355 114.102 26.58 114.606 26.3411C115.088 25.9984 114.346 25.9206 114.694 25.2196C113.837 24.8406 115.146 24.9029 114.169 23.5633C114.574 23.475 113.91 23.0077 114.434 22.9558C114.341 22.6495 113.899 22.6495 113.905 22.1926C113.827 22.0264 113.889 21.9329 113.967 21.9277C114.356 21.8862 113.77 21.5747 114.232 21.5435C114.091 21.4137 113.754 21.5383 113.988 21.2424C113.816 20.8893 113.754 20.4635 113.427 20.1624C113.012 20.0689 113.738 19.7886 113.401 19.612C113.126 19.3888 112.627 19.2953 113.095 18.8799C113.588 18.5009 112.783 18.5165 112.71 18.2569C112.482 17.8415 112.181 17.4677 111.885 17.1198C112.186 16.8082 111.132 16.6784 111.698 16.3306C111.838 16.0242 111.085 16.4032 111.111 15.8633C111.09 15.2869 111.059 15.6919 110.696 15.4946C110.353 15.0637 110.54 14.4614 110.01 14.2693C109.829 14.2952 109.642 14.2641 109.761 14.0616C109.87 13.6929 109.2 14.0823 109.289 13.6773C109.206 13.48 109.522 13.0854 109.164 13.3762C108.749 13.5423 109.06 13.0231 108.764 12.9816C108.339 12.8777 108.302 12.4208 107.892 12.2339C107.985 11.7458 107.227 12.2858 107.342 11.7355C107.394 11.2785 106.641 11.6732 106.703 11.2889C106.615 10.5464 104.964 10.9359 105.192 9.84031C104.683 10.0688 104.091 9.79358 103.775 9.24321C103.453 8.93687 102.58 9.1809 103.042 8.51111C102.793 8.43841 102.497 8.96802 102.404 8.56822C102.279 8.13207 101.802 8.7811 101.812 8.13207C101.21 8.56822 100.566 7.97112 99.9687 7.71151C99.6572 7.73747 98.8731 7.83093 98.7278 7.52978C98.681 7.41555 98.5305 7.12998 98.5201 7.39997C97.8866 7.90362 97.3674 6.70941 97.0974 7.33767C96.6301 7.4519 97.0507 7.03133 96.817 6.94825C96.5419 7.45709 95.9759 7.28575 95.5813 6.86518C95.2334 6.6523 94.6363 7.13517 94.1067 6.83922L94.1015 6.85479Z" fill="#0286CD"/>
<path d="M36.996 44V35.456H38.664V42.512H42.54V44H36.996ZM44.7679 44V35.456H50.3959V36.944H46.4359V38.948H49.8079V40.436H46.4359V42.512H50.3959V44H44.7679ZM56.0111 44H54.7631L51.9431 35.456H53.6711L55.3871 41.024L57.1031 35.456L58.8431 35.456L56.0111 44ZM60.7453 44V35.456H66.3733V36.944H62.4133V38.948H65.7853V40.436H62.4133V42.512L66.3733 42.512V44L60.7453 44ZM68.8805 44V35.456H70.5485V42.512H74.4245V44H68.8805Z" fill="black"/>
<path d="M6.53859 29.1006C4.80306 29.086 3.14325 28.3878 1.91919 27.1573C0.69514 25.9269 0.00555012 24.2635 0 22.5279C0.0102864 21.3367 0.343468 20.1707 0.96406 19.1539C1.58465 18.1371 2.46941 17.3077 3.52411 16.754C4.57881 16.2003 5.76395 15.943 6.95329 16.0096C8.14264 16.0761 9.29166 16.4641 10.278 17.132V16.1257H13.3565V28.8064H10.2844V27.9685C9.17868 28.7154 7.87284 29.11 6.53859 29.1006ZM3.00174 22.5279C3.00174 23.4936 3.38538 24.4198 4.06826 25.1027C4.75113 25.7856 5.67732 26.1692 6.64306 26.1692C7.60879 26.1692 8.53498 25.7856 9.21786 25.1027C9.90074 24.4198 10.2844 23.4936 10.2844 22.5279C10.2844 22.0497 10.1902 21.5762 10.0072 21.1344C9.8242 20.6926 9.55598 20.2912 9.21786 19.9531C8.87973 19.615 8.47831 19.3467 8.03653 19.1638C7.59474 18.9808 7.12124 18.8866 6.64306 18.8866C6.16487 18.8866 5.69137 18.9808 5.24959 19.1638C4.8078 19.3467 4.40638 19.615 4.06826 19.9531C3.73013 20.2912 3.46191 20.6926 3.27892 21.1344C3.09592 21.5762 3.00174 22.0497 3.00174 22.5279Z" fill="black"/>
<path d="M21.0207 29.1007C20.1506 29.1164 19.286 28.9585 18.4775 28.6364C17.6691 28.3143 16.9329 27.8343 16.312 27.2245C15.6911 26.6147 15.1979 25.8872 14.8612 25.0847C14.5245 24.2822 14.3511 23.4206 14.3511 22.5503C14.3511 21.6801 14.5245 20.8185 14.8612 20.016C15.1979 19.2134 15.6911 18.486 16.312 17.8762C16.9329 17.2664 17.6691 16.7864 18.4775 16.4643C19.286 16.1421 20.1506 15.9843 21.0207 16C22.3451 15.9808 23.6423 16.3766 24.7302 17.1321V11.8193H27.8471V28.8065H24.7302V27.9686C23.6351 28.7042 22.3463 29.0981 21.0271 29.1007H21.0207ZM17.4476 22.528C17.4476 23.2474 17.6607 23.9507 18.0601 24.5492C18.4595 25.1476 19.0272 25.6143 19.6915 25.8904C20.3559 26.1665 21.0872 26.2396 21.7931 26.1005C22.4989 25.9614 23.1478 25.6163 23.6577 25.1087C24.1676 24.6012 24.5158 23.954 24.6582 23.2487C24.8006 22.5435 24.7309 21.8119 24.4579 21.1463C24.1849 20.4806 23.7209 19.9107 23.1243 19.5086C22.5278 19.1064 21.8254 18.89 21.106 18.8866C20.1379 18.8855 19.2089 19.2681 18.5224 19.9506C17.8359 20.6331 17.4479 21.5599 17.4433 22.528" fill="black"/>
<path d="M32.5075 16.1257H29.3842V28.8064H32.5075V16.1257Z" fill="black"/>
<path d="M32.5053 11.8171H29.3842V14.9575H32.5053V11.8171Z" fill="black"/>
<path d="M41.1098 26.6703C40.4922 26.9771 39.8102 27.1321 39.1207 27.1223C38.7538 27.1317 38.39 27.053 38.0599 26.8928C37.7297 26.7325 37.4428 26.4954 37.2233 26.2013C36.7443 25.5873 36.5041 24.7551 36.5027 23.7048C36.4997 22.8537 36.6079 22.0058 36.8246 21.1828C37.0168 20.4244 37.3033 19.6931 37.6774 19.0061C37.9817 18.4294 38.3892 17.9135 38.8798 17.4839C39.2601 17.1364 39.7527 16.9373 40.2677 16.9232C40.5167 16.9205 40.7632 16.973 40.9896 17.077C41.2159 17.1809 41.4164 17.3337 41.5767 17.5244C41.932 17.9252 42.2255 18.5434 42.4571 19.3792H42.5382L44.5144 17.6438C44.0694 17.1269 43.5151 16.7152 42.8917 16.4383C42.2683 16.1615 41.5913 16.0263 40.9094 16.0427C39.9435 16.0369 38.9913 16.2705 38.1379 16.7228C37.2567 17.1895 36.4759 17.8247 35.8397 18.5925C35.1584 19.408 34.6298 20.3396 34.2791 21.3427C33.9013 22.4198 33.7144 23.5547 33.7269 24.6962C33.7032 25.5089 33.882 26.3148 34.2471 27.0413C34.5757 27.6723 35.0878 28.189 35.716 28.523C36.4074 28.8709 37.1744 29.0416 37.9481 29.0197C39.0091 29.0225 40.0446 28.6954 40.9115 28.0838C41.8753 27.3923 42.6323 26.451 43.101 25.3613L42.8878 25.227C42.3891 25.8135 41.7863 26.3029 41.1098 26.6703Z" fill="black"/>
<path d="M49.0874 11.8193L48.9531 11.7383L45.4823 12.7275L45.4567 12.8874L45.9641 14.6483L44.1499 26.1884C43.9907 27.2387 44.044 27.9821 44.3098 28.4184C44.5762 28.8448 45.0133 29.0729 45.6188 29.0729C46.1612 29.0892 46.6884 28.8926 47.0876 28.525C47.5039 28.1213 47.8307 27.6346 48.047 27.0966L47.8871 26.99C47.8084 27.0658 47.7185 27.1291 47.6206 27.1776C47.5305 27.2253 47.4305 27.2516 47.3286 27.2544C47.2668 27.2604 47.2046 27.2529 47.146 27.2324C47.0875 27.2119 47.0342 27.1789 46.9897 27.1357C46.9453 27.0924 46.9108 27.04 46.8887 26.9821C46.8666 26.9242 46.8573 26.8621 46.8617 26.8003C46.8417 26.3543 46.8639 25.9075 46.9278 25.4657L49.0874 11.8193Z" fill="black"/>
<path d="M61.2052 16.0149L61.0709 15.9338L57.6002 16.9231L57.5725 17.0829L58.0798 18.846L57.2271 24.3251C56.8531 24.7573 56.4476 25.1614 56.014 25.5339C55.5342 25.9571 55.0111 26.3287 54.4535 26.6425C54.0248 26.9011 53.538 27.0477 53.0379 27.0688C52.8178 27.0731 52.6017 27.0103 52.4182 26.8888C52.2347 26.7673 52.0924 26.593 52.0103 26.3888C51.7857 25.9354 51.7545 25.192 51.9165 24.1588L53.1956 16.0149L53.0613 15.9338L49.5906 16.9231L49.565 17.0829L50.0724 18.846L49.1897 24.453C49.0666 25.2042 49.0579 25.9697 49.1642 26.7235C49.2384 27.3577 49.4879 27.9586 49.8848 28.4589C50.0834 28.6844 50.3308 28.8617 50.6083 28.9773C50.8857 29.0929 51.1858 29.1438 51.4858 29.1261C52.3177 29.1099 53.129 28.865 53.8309 28.4183C54.6295 27.9336 55.3534 27.3354 55.9799 26.6425C56.3809 26.2069 56.7473 25.7407 57.0757 25.2482L56.9286 26.1884C56.7666 27.2387 56.8199 27.982 57.0885 28.4183C57.355 28.8447 57.7899 29.0728 58.3954 29.0728C58.9379 29.0899 59.4654 28.8931 59.8643 28.5249C60.2819 28.1219 60.6095 27.6351 60.8258 27.0966L60.6659 26.99C60.5872 27.0658 60.4973 27.1291 60.3994 27.1776C60.3131 27.2234 60.2177 27.2496 60.1201 27.2543C60.0584 27.2604 59.9961 27.2529 59.9376 27.2324C59.8791 27.2119 59.8257 27.1789 59.7813 27.1356C59.7368 27.0924 59.7023 27.04 59.6802 26.9821C59.6581 26.9241 59.6489 26.8621 59.6532 26.8002C59.6322 26.3543 59.6543 25.9073 59.7193 25.4656L61.2052 16.0149Z" fill="black"/>
<path d="M73.2996 17.8313C73.081 17.2846 72.7222 16.8051 72.2592 16.4413C71.8138 16.1037 71.2681 15.9251 70.7093 15.9339C69.9476 15.9517 69.2015 16.1536 68.5348 16.5223C67.732 16.9477 67.0017 17.4974 66.3709 18.1511C66.0535 18.4742 65.7572 18.8175 65.484 19.1787L66.6459 11.8193L66.5137 11.7383L63.0408 12.7275L63.0152 12.8874L63.5226 14.6483L61.2841 28.9322L61.3907 29.0132L63.8701 28.1071C64.0509 28.2387 64.2396 28.359 64.4351 28.4674C65.1939 28.8557 66.0392 29.0442 66.8911 29.0153C67.8196 29.0192 68.7322 28.7748 69.5346 28.3075C70.3834 27.809 71.1201 27.1405 71.6985 26.3441C72.3436 25.4628 72.8352 24.4789 73.1525 23.434C73.5073 22.2837 73.6834 21.0859 73.6748 19.8822C73.6889 19.1803 73.5612 18.4828 73.2996 17.8313ZM70.4961 23.6514C70.3023 24.4373 70.0108 25.1957 69.6284 25.9091C69.3173 26.5077 68.9014 27.0456 68.4005 27.4974C68.2024 27.6892 67.9682 27.8398 67.7115 27.9405C67.4548 28.0411 67.1806 28.0897 66.905 28.0836C66.6293 28.0774 66.3576 28.0166 66.1056 27.9046C65.8536 27.7927 65.6264 27.6318 65.4371 27.4313C64.9967 26.9549 64.6586 26.3934 64.4436 25.7812L65.3113 20.2766C65.8331 19.7301 66.412 19.2412 67.0382 18.8184C67.8653 18.2655 68.576 17.9898 69.1701 17.9912C69.4295 17.98 69.6866 18.0448 69.9097 18.1778C70.1328 18.3107 70.3122 18.506 70.4258 18.7395C70.6923 19.2362 70.8244 20.0187 70.8244 21.0612C70.8238 21.9349 70.7135 22.8051 70.4961 23.6514Z" fill="black"/>
</svg>
