<svg width="52" height="24" viewBox="0 0 52 24" fill="none" xmlns="http://www.w3.org/2000/svg">
<g id="icon-adidas-afterpay" clip-path="url(#clip0_159_2192)">
<g id="Afterpay_Logo_Black">
<g id="Vector">
<path d="M42.9514 21.021H9.04862C4.05084 21.021 0 16.9872 0 12.0105C0 7.03377 4.05084 3 9.04862 3H42.9514C47.9492 3 52 7.03377 52 12.0105C52.0033 16.984 47.9492 21.021 42.9514 21.021Z" fill="#B2FCE4"/>
<path d="M44.3225 9.8561L42.0307 8.54971C41.2679 8.11424 40.3144 8.66103 40.3144 9.53851V9.68584C40.3144 9.7677 40.3571 9.843 40.4295 9.88229L40.9654 10.1868C41.1134 10.2719 41.2975 10.1639 41.2975 9.99361V9.64328C41.2975 9.46975 41.4849 9.3617 41.6362 9.44683L43.7372 10.6484C43.8885 10.7336 43.8885 10.9529 43.7372 11.0381L41.6362 12.2397C41.4849 12.3248 41.2975 12.2168 41.2975 12.0432V11.8697C41.2975 10.9922 40.344 10.4422 39.5812 10.8809L37.2894 12.1873C36.5233 12.626 36.5233 13.7294 37.2894 14.1682L39.5812 15.4746C40.344 15.91 41.2975 15.3632 41.2975 14.4858V14.3384C41.2975 14.2566 41.2548 14.1813 41.1824 14.142L40.6465 13.8375C40.4985 13.7524 40.3144 13.8604 40.3144 14.0307V14.381C40.3144 14.5545 40.127 14.6626 39.9757 14.5774L38.9236 13.975L37.8747 13.3758C37.7234 13.2907 37.7234 13.0713 37.8747 12.9862L39.9757 11.7846C40.127 11.6995 40.3144 11.8075 40.3144 11.981V12.1546C40.3144 13.032 41.2679 13.5821 42.0307 13.1434L44.3225 11.837C45.0886 11.395 45.0886 10.2948 44.3225 9.8561Z" fill="black"/>
<path d="M36.8587 10.0722L34.1954 15.5499H33.0906L34.0869 13.5035L32.5185 10.0722H33.6529L34.659 12.3707L35.7572 10.0722H36.8587Z" fill="black"/>
<path d="M10.229 12.0171C10.229 11.3622 9.75228 10.9039 9.16701 10.9039C8.58175 10.9039 8.10498 11.3721 8.10498 12.0171C8.10498 12.6555 8.58175 13.1303 9.16701 13.1303C9.75228 13.1303 10.229 12.6719 10.229 12.0171ZM10.2389 13.9619V13.4577C9.94956 13.808 9.51883 14.0241 9.0059 14.0241C7.93401 14.0241 7.12187 13.1696 7.12187 12.0171C7.12187 10.8744 7.96689 10.0035 9.02892 10.0035C9.5287 10.0035 9.94956 10.2228 10.2389 10.5633V10.0722H11.199V13.9619H10.2389Z" fill="black"/>
<path d="M15.868 13.0975C15.5326 13.0975 15.4373 12.9731 15.4373 12.6457V10.9202H16.0554V10.0722H15.4373V9.1227H14.4541V10.0722H13.185V9.68585C13.185 9.35843 13.3099 9.23402 13.6552 9.23402H13.8722V8.48096H13.3987C12.5865 8.48096 12.2018 8.74617 12.2018 9.55488V10.0755H11.656V10.9202H12.2018V13.9619H13.185V10.9202H14.4541V12.8258C14.4541 13.6181 14.7599 13.9619 15.5556 13.9619H16.062V13.0975H15.868Z" fill="black"/>
<path d="M19.3994 11.6667C19.3303 11.1625 18.916 10.858 18.4294 10.858C17.9461 10.858 17.5449 11.1527 17.4463 11.6667H19.3994ZM17.4364 12.2725C17.5055 12.8487 17.9198 13.1761 18.4458 13.1761C18.8601 13.1761 19.1791 12.9829 19.3665 12.6719H20.3759C20.1425 13.497 19.3994 14.0241 18.4228 14.0241C17.2424 14.0241 16.4138 13.199 16.4138 12.0236C16.4138 10.8482 17.2885 10.0002 18.4458 10.0002C19.6098 10.0002 20.4548 10.8547 20.4548 12.0236C20.4548 12.1087 20.4482 12.1939 20.4318 12.2725H17.4364Z" fill="black"/>
<path d="M26.7152 12.0171C26.7152 11.3884 26.2384 10.9039 25.6532 10.9039C25.0679 10.9039 24.5911 11.3721 24.5911 12.0171C24.5911 12.6555 25.0679 13.1303 25.6532 13.1303C26.2384 13.1303 26.7152 12.649 26.7152 12.0171ZM23.6212 15.5499V10.0722H24.5813V10.5764C24.8706 10.2196 25.3013 10.0002 25.8143 10.0002C26.8697 10.0002 27.6983 10.8646 27.6983 12.0072C27.6983 13.1499 26.8533 14.0209 25.7913 14.0209C25.2981 14.0209 24.8936 13.8277 24.6109 13.5003V15.5466H23.6212V15.5499Z" fill="black"/>
<path d="M31.1606 12.0171C31.1606 11.3622 30.6838 10.9039 30.0985 10.9039C29.5133 10.9039 29.0365 11.3721 29.0365 12.0171C29.0365 12.6555 29.5133 13.1303 30.0985 13.1303C30.6838 13.1303 31.1606 12.6719 31.1606 12.0171ZM31.1704 13.9619V13.4577C30.8811 13.808 30.4504 14.0241 29.9374 14.0241C28.8655 14.0241 28.0534 13.1696 28.0534 12.0171C28.0534 10.8744 28.8984 10.0035 29.9604 10.0035C30.4602 10.0035 30.8811 10.2228 31.1704 10.5633V10.0722H32.1305V13.9619H31.1704Z" fill="black"/>
<path d="M21.8884 10.452C21.8884 10.452 22.1317 10.0002 22.7334 10.0002C22.9898 10.0002 23.1542 10.0886 23.1542 10.0886V11.0807C23.1542 11.0807 22.7926 10.858 22.4605 10.9039C22.1284 10.9497 21.9179 11.2509 21.9179 11.6569V13.9586H20.925V10.0722H21.8851V10.452H21.8884Z" fill="black"/>
</g>
</g>
</g>
<defs>
<clipPath id="clip0_159_2192">
<rect width="52" height="24" fill="white"/>
</clipPath>
</defs>
</svg>
