<?xml version="1.0" standalone="no"?>
<!DOCTYPE svg PUBLIC "-//W3C//DTD SVG 20010904//EN"
 "http://www.w3.org/TR/2001/REC-SVG-20010904/DTD/svg10.dtd">
<svg version="1.0" xmlns="http://www.w3.org/2000/svg"
 width="108.000000pt" height="88.000000pt" viewBox="0 0 108.000000 88.000000"
 preserveAspectRatio="xMidYMid meet">

<g transform="translate(0.000000,88.000000) scale(0.100000,-0.100000)"
fill="#000000" stroke="none">
<path d="M255 610 l-170 -170 170 -170 170 -170 42 42 43 42 -97 98 -98 98
303 0 302 0 0 -150 0 -150 60 0 60 0 0 210 0 210 -362 0 -363 0 100 100 99
100 -39 40 c-21 22 -42 40 -45 40 -3 0 -82 -76 -175 -170z"/>
</g>
</svg>
