<?xml version="1.0" standalone="no"?>
<!DOCTYPE svg PUBLIC "-//W3C//DTD SVG 20010904//EN"
 "http://www.w3.org/TR/2001/REC-SVG-20010904/DTD/svg10.dtd">
<svg version="1.0" xmlns="http://www.w3.org/2000/svg"
 width="139.000000pt" height="130.000000pt" viewBox="0 0 139.000000 130.000000"
 preserveAspectRatio="xMidYMid meet">

<g transform="translate(0.000000,130.000000) scale(0.100000,-0.100000)"
fill="#000000" stroke="none">
<path d="M480 1130 l0 -120 -120 0 -120 0 0 -480 0 -480 480 0 480 0 0 480 0
480 -120 0 -120 0 0 120 0 120 -240 0 -240 0 0 -120z m360 -60 l0 -60 -120 0
-120 0 0 60 0 60 120 0 120 0 0 -60z m-360 -240 l0 -60 60 0 60 0 0 60 0 60
120 0 120 0 0 -60 0 -60 60 0 60 0 0 60 0 60 60 0 60 0 0 -360 0 -360 -360 0
-360 0 0 360 0 360 60 0 60 0 0 -60z"/>
</g>
</svg>
