<svg width="61" height="24" viewBox="0 0 61 24" fill="none" xmlns="http://www.w3.org/2000/svg">
<g clip-path="url(#clip0_4322_96218)">
<path fill-rule="evenodd" clip-rule="evenodd" d="M28.9116 11.7301V18.7732H26.711V1.38725H32.5473C33.9551 1.35961 35.3219 1.90039 36.3196 2.89865C38.3151 4.78408 38.4382 7.95907 36.5657 9.99705L36.3196 10.2467C35.2945 11.2312 34.0371 11.7301 32.5473 11.7301H28.9116ZM28.9116 3.52252V9.59502H32.6019C33.422 9.62284 34.2147 9.29008 34.7752 8.69385C35.9233 7.48775 35.896 5.54668 34.7068 4.38204C34.1464 3.82745 33.3947 3.52252 32.6019 3.52252H28.9116ZM42.9758 6.48931C44.6023 6.48931 45.8871 6.93299 46.8303 7.80633C47.7733 8.67986 48.238 9.89996 48.238 11.4388V18.7731H46.1331V17.1233H46.0375C45.1218 18.4819 43.919 19.1613 42.4017 19.1613C41.1171 19.1613 40.0235 18.7731 39.1626 17.9968C38.315 17.2758 37.8368 16.2083 37.8641 15.0851C37.8641 13.8512 38.3289 12.8807 39.2446 12.146C40.1603 11.4112 41.3904 11.0506 42.9212 11.0506C44.2333 11.0506 45.2994 11.3003 46.1468 11.7716V11.2586C46.1468 10.496 45.8188 9.77522 45.2447 9.27609C44.657 8.74913 43.9053 8.45802 43.1262 8.45802C41.8961 8.45802 40.9256 8.98479 40.215 10.0385L38.2741 8.80459C39.3129 7.26574 40.8847 6.48931 42.9758 6.48931ZM40.133 15.1268C40.133 15.7092 40.4063 16.2498 40.8574 16.5825C41.3495 16.9707 41.9508 17.1787 42.5658 17.1649C43.4953 17.1649 44.3837 16.7905 45.0398 16.125C45.7642 15.4319 46.1331 14.6138 46.1331 13.671C45.4498 13.1164 44.493 12.8391 43.2629 12.8531C42.3745 12.8531 41.6228 13.0749 41.0214 13.5046C40.4336 13.9345 40.133 14.4752 40.133 15.1268ZM52.9672 24L60.3205 6.8775H57.9287L54.5253 15.4178H54.4844L50.999 6.8775H48.607L53.4319 18.0106L50.6982 24H52.9672Z" fill="#3C4043"/>
<path fill-rule="evenodd" clip-rule="evenodd" d="M20.0138 10.2049C20.0138 9.52557 19.959 8.84624 19.8497 8.18073H10.5692V12.021H15.886C15.6674 13.2551 14.9566 14.3641 13.9178 15.0575V17.553H17.0888C18.9477 15.8199 20.0138 13.2551 20.0138 10.2049Z" fill="#4285F4"/>
<path fill-rule="evenodd" clip-rule="evenodd" d="M10.5692 19.9655C13.2208 19.9655 15.4623 19.0782 17.0888 17.553L13.9178 15.0575C13.0294 15.6675 11.8951 16.0141 10.5692 16.0141C7.99968 16.0141 5.82641 14.2532 5.04744 11.8963H1.7808V14.4751C3.44821 17.8442 6.85159 19.9655 10.5692 19.9655Z" fill="#34A853"/>
<path fill-rule="evenodd" clip-rule="evenodd" d="M5.04744 11.8963C4.6374 10.6624 4.6374 9.31755 5.04744 8.06981V5.50487H1.7808C0.37287 8.31928 0.37287 11.6468 1.7808 14.4612L5.04744 11.8963Z" fill="#FBBC04"/>
<path fill-rule="evenodd" clip-rule="evenodd" d="M10.5692 3.95202C11.9771 3.92438 13.3301 4.46497 14.3415 5.44941L17.1572 2.59336C15.3666 0.901946 13.0157 -0.0270392 10.5692 0.000599485C6.85159 0.000599485 3.44821 2.13587 1.7808 5.50487L5.04744 8.08363C5.82641 5.71289 7.99968 3.95202 10.5692 3.95202Z" fill="#EA4335"/>
</g>
<defs>
<clipPath id="clip0_4322_96218">
<rect width="60" height="24" fill="white" transform="translate(0.724854)"/>
</clipPath>
</defs>
</svg>
