<?xml version="1.0" standalone="no"?>
<!DOCTYPE svg PUBLIC "-//W3C//DTD SVG 20010904//EN"
 "http://www.w3.org/TR/2001/REC-SVG-20010904/DTD/svg10.dtd">
<svg version="1.0" xmlns="http://www.w3.org/2000/svg"
 width="139.000000pt" height="99.000000pt" viewBox="0 0 139.000000 99.000000"
 preserveAspectRatio="xMidYMid meet">

<g transform="translate(0.000000,99.000000) scale(0.100000,-0.100000)"
fill="#000000" stroke="none">
<path d="M257 793 c-99 -162 -127 -211 -127 -219 0 -5 124 -133 275 -284 l275
-275 275 275 c151 151 275 279 275 285 -1 5 -40 75 -88 155 l-88 145 -125 2
-124 2 -59 -69 c-32 -39 -62 -70 -66 -70 -4 0 -34 31 -66 69 l-59 70 -122 0
-122 1 -54 -87z m328 -138 c50 -58 92 -105 95 -104 3 0 45 47 95 105 l89 104
57 0 58 0 52 -86 52 -86 -202 -202 -201 -201 -200 200 c-128 128 -198 205
-195 214 3 8 26 47 51 88 l46 73 57 0 56 -1 90 -104z"/>
</g>
</svg>
