<svg width="36" height="24" viewBox="0 0 36 24" fill="none" xmlns="http://www.w3.org/2000/svg">
<g id="icon-adidas-klarna">
<g clip-path="url(#clip0_159_2197)">
<rect id="Rectangle" width="36" height="24" rx="4.321" fill="#FFB3C7"/>
<g id="Vector">
<path d="M33.3639 14.1398C32.8794 14.1398 32.4867 14.536 32.4867 15.0249C32.4867 15.5137 32.8794 15.9101 33.3639 15.9101C33.8483 15.9101 34.2411 15.5137 34.2411 15.0249C34.2411 14.536 33.8483 14.1398 33.3639 14.1398ZM30.4779 13.4554C30.4779 12.7861 29.9109 12.2437 29.2116 12.2437C28.5122 12.2437 27.9452 12.7862 27.9452 13.4554C27.9452 14.1247 28.5121 14.6673 29.2116 14.6673C29.911 14.6673 30.4779 14.1247 30.4779 13.4554ZM30.4826 11.1003H31.8801V15.8105H30.4826V15.5094C30.0877 15.7811 29.6112 15.9409 29.0971 15.9409C27.7368 15.9409 26.634 14.8281 26.634 13.4554C26.634 12.0827 27.7368 10.9701 29.0971 10.9701C29.6112 10.9701 30.0877 11.1298 30.4826 11.4016V11.1003ZM19.2983 11.7138V11.1003H17.8674V15.8104H19.3015V13.6114C19.3015 12.8694 20.0984 12.4706 20.6514 12.4706C20.657 12.4706 20.6623 12.4712 20.668 12.4712V11.1007C20.1004 11.1007 19.5785 11.3458 19.2983 11.7138ZM15.734 13.4555C15.734 12.7862 15.167 12.2437 14.4676 12.2437C13.7683 12.2437 13.2012 12.7862 13.2012 13.4555C13.2012 14.1248 13.7682 14.6674 14.4676 14.6674C15.167 14.6674 15.734 14.1248 15.734 13.4555ZM15.7386 11.1003H17.1362V15.8105H15.7386V15.5094C15.3438 15.7811 14.8672 15.9409 14.3533 15.9409C12.9929 15.9409 11.8901 14.8281 11.8901 13.4554C11.8901 12.0827 12.9929 10.9701 14.3533 10.9701C14.8672 10.9701 15.3438 11.1298 15.7386 11.4016V11.1003ZM24.1507 10.9736C23.5924 10.9736 23.064 11.1485 22.7108 11.631V11.1006H21.3192V15.8105H22.7279V13.3353C22.7279 12.619 23.2039 12.2683 23.777 12.2683C24.3913 12.2683 24.7444 12.6385 24.7444 13.3256V15.8105H26.1403V12.8152C26.1403 11.7191 25.2766 10.9736 24.1507 10.9736ZM9.85436 15.8105H11.3172V9.00128H9.85436V15.8105ZM3.42859 15.8124H4.97754V9.00001H3.42859V15.8124ZM8.84628 9.00001C8.84628 10.4748 8.27671 11.8468 7.26179 12.8665L9.40286 15.8126H7.48972L5.16284 12.6109L5.76337 12.1571C6.75928 11.4043 7.3305 10.2536 7.3305 9L8.84628 9.00001Z" fill="#0A0B09"/>
</g>
</g>
</g>
<defs>
<clipPath id="clip0_159_2197">
<rect width="36" height="24" fill="white"/>
</clipPath>
</defs>
</svg>
