<?xml version="1.0" standalone="no"?>
<!DOCTYPE svg PUBLIC "-//W3C//DTD SVG 20010904//EN"
 "http://www.w3.org/TR/2001/REC-SVG-20010904/DTD/svg10.dtd">
<svg version="1.0" xmlns="http://www.w3.org/2000/svg"
 width="201.000000pt" height="122.000000pt" viewBox="0 0 201.000000 122.000000"
 preserveAspectRatio="xMidYMid meet">

<g transform="translate(0.000000,122.000000) scale(0.100000,-0.100000)"
fill="#000000" stroke="none">
<path d="M130 1040 l0 -80 900 0 900 0 0 80 0 80 -900 0 -900 0 0 -80z"/>
<path d="M130 590 l0 -80 900 0 900 0 0 80 0 80 -900 0 -900 0 0 -80z"/>
<path d="M130 140 l0 -80 900 0 900 0 0 80 0 80 -900 0 -900 0 0 -80z"/>
</g>
</svg>
