<?xml version="1.0" standalone="no"?>
<!DOCTYPE svg PUBLIC "-//W3C//DTD SVG 20010904//EN"
 "http://www.w3.org/TR/2001/REC-SVG-20010904/DTD/svg10.dtd">
<svg version="1.0" xmlns="http://www.w3.org/2000/svg"
 width="124.000000pt" height="107.000000pt" viewBox="0 0 124.000000 107.000000"
 preserveAspectRatio="xMidYMid meet">

<g transform="translate(0.000000,107.000000) scale(0.100000,-0.100000)"
fill="#000000" stroke="none">
<path d="M410 1025 c-109 -34 -214 -143 -247 -254 -23 -81 -14 -200 21 -274
35 -73 109 -147 183 -184 53 -25 68 -28 164 -28 100 0 109 2 169 33 l64 33
158 -158 158 -158 37 38 38 37 -158 158 -158 158 33 64 c31 60 33 69 33 169 0
94 -3 112 -27 163 -34 74 -112 152 -186 186 -46 22 -74 27 -147 29 -57 2 -107
-3 -135 -12z m230 -116 c171 -77 215 -302 87 -438 -97 -102 -265 -109 -375
-16 -81 68 -115 202 -77 302 54 142 228 214 365 152z"/>
</g>
</svg>
