<?xml version="1.0" standalone="no"?>
<!DOCTYPE svg PUBLIC "-//W3C//DTD SVG 20010904//EN"
 "http://www.w3.org/TR/2001/REC-SVG-20010904/DTD/svg10.dtd">
<svg version="1.0" xmlns="http://www.w3.org/2000/svg"
 width="162.000000pt" height="144.000000pt" viewBox="0 0 162.000000 144.000000"
 preserveAspectRatio="xMidYMid meet">

<g transform="translate(0.000000,144.000000) scale(0.100000,-0.100000)"
fill="#000000" stroke="none">
<path d="M692 1162 c-141 -51 -231 -190 -220 -337 10 -117 80 -220 187 -272
48 -24 68 -28 141 -28 73 0 93 4 141 28 66 32 132 99 162 165 34 73 31 198 -6
273 -32 67 -100 132 -165 162 -66 29 -172 33 -240 9z m186 -118 c110 -45 162
-174 113 -279 -76 -165 -306 -165 -382 0 -78 167 99 351 269 279z"/>
<path d="M330 323 c-57 -75 -104 -143 -106 -152 -3 -10 13 -28 39 -48 l44 -31
92 124 93 124 308 0 308 0 88 -120 c49 -65 93 -119 97 -120 5 0 28 15 52 34
l45 33 -110 147 -110 146 -369 0 -369 0 -102 -137z"/>
</g>
</svg>
